<?xml version="1.0" standalone="no"?><!DOCTYPE svg PUBLIC "-//W3C//DTD SVG 1.1//EN" "http://www.w3.org/Graphics/SVG/1.1/DTD/svg11.dtd"><svg t="1652442994657" class="icon" viewBox="0 0 1024 1024" version="1.1" xmlns="http://www.w3.org/2000/svg" p-id="2640" xmlns:xlink="http://www.w3.org/1999/xlink" width="32" height="32"><defs><style type="text/css">@font-face { font-family: feedback-iconfont; src: url("//at.alicdn.com/t/font_1031158_u69w8yhxdu.woff2?t=1630033759944") format("woff2"), url("//at.alicdn.com/t/font_1031158_u69w8yhxdu.woff?t=1630033759944") format("woff"), url("//at.alicdn.com/t/font_1031158_u69w8yhxdu.ttf?t=1630033759944") format("truetype"); }
</style></defs><path d="M832 340.992L512 653.013333 192 340.992a28.757333 28.757333 0 0 0-21.034667-8.96 28.757333 28.757333 0 0 0-20.992 8.96 28.757333 28.757333 0 0 0-8.96 20.992c0 8.021333 2.645333 14.677333 7.978667 20.010667l340.992 331.989333c5.973333 5.973333 13.354667 8.96 22.016 8.96 8.704 0 16.042667-2.986667 22.016-8.96l340.992-331.008a31.274667 31.274667 0 0 0 8.021333-21.504 27.733333 27.733333 0 0 0-9.002666-20.992 29.738667 29.738667 0 0 0-20.992-8.533333 28.586667 28.586667 0 0 0-20.992 9.002666l-0.085334 0.042667z" p-id="2641"></path></svg>