<?xml version="1.0" standalone="no"?><!DOCTYPE svg PUBLIC "-//W3C//DTD SVG 1.1//EN" "http://www.w3.org/Graphics/SVG/1.1/DTD/svg11.dtd"><svg t="1652442985338" class="icon" viewBox="0 0 1024 1024" version="1.1" xmlns="http://www.w3.org/2000/svg" p-id="2490" xmlns:xlink="http://www.w3.org/1999/xlink" width="32" height="32"><defs><style type="text/css">@font-face { font-family: feedback-iconfont; src: url("//at.alicdn.com/t/font_1031158_u69w8yhxdu.woff2?t=1630033759944") format("woff2"), url("//at.alicdn.com/t/font_1031158_u69w8yhxdu.woff?t=1630033759944") format("woff"), url("//at.alicdn.com/t/font_1031158_u69w8yhxdu.ttf?t=1630033759944") format("truetype"); }
</style></defs><path d="M488.96 343.978667L149.034667 701.013333a32.256 32.256 0 0 0-8.96 22.016c0 8.021333 2.986667 15.36 8.96 22.016v1.024c5.973333 5.973333 13.141333 8.96 21.504 8.96 8.32 0 15.488-2.986667 21.504-8.96L512 410.026667l320 336c5.973333 5.973333 13.141333 8.96 21.504 8.96 8.32 0 15.488-2.986667 21.504-8.96v-1.024a32.256 32.256 0 0 0 8.96-22.016c0-7.978667-2.986667-15.36-8.96-22.016l-340.010667-356.992a31.146667 31.146667 0 0 0-22.997333-8.96 31.146667 31.146667 0 0 0-23.04 8.96z" p-id="2491"></path></svg>